<svg xmlns="http://www.w3.org/2000/svg" viewBox="3991.282 1654 23.343 14.585">
  <defs>
    <style>
      .cls-1 {
        fill: #fff;
      }
    </style>
  </defs>
  <g id="group-42" transform="translate(3991.282 1654)">
    <path id="path" class="cls-1" d="M21.665.044,21.461,0H1.041L.91.029l10.341,9.2Z" transform="translate(0.417)"/>
    <path id="path-2" data-name="path" class="cls-1" d="M462.223,770.67l-7.293,6.49,7.293,6.345a1.459,1.459,0,0,0,.1-.686V771.151a1.459,1.459,0,0,0-.1-.481Z" transform="translate(-438.988 -769.693)"/>
    <path id="path-3" data-name="path" class="cls-1" d="M444.117,770.61a1.458,1.458,0,0,0-.117.569v11.668a1.457,1.457,0,0,0,.131.6l7.293-6.286Z" transform="translate(-444 -769.72)"/>
    <path id="path-4" data-name="path" class="cls-1" d="M11.233,8.541,8.126,5.77.95,11.925l.073.015H21.384L14.339,5.785Z" transform="translate(0.436 2.646)"/>
  </g>
</svg>
